<svg width="314" height="109" viewBox="0 0 314 109" fill="none" xmlns="http://www.w3.org/2000/svg">
<g clip-path="url(#clip0_1_61)">
<path d="M4 -1.00001H16.64L49.92 96.44H50.24L83.52 -1.00001H96.16L56.64 111H43.52L4 -1.00001ZM109.013 93.4V16.6L126.613 -1.00001H175.573L192.533 15.96V26.2H180.373V19.96L170.133 9.88H132.053L121.173 20.6V89.4L132.053 100.12H169.493L180.373 89.4V63.48H155.093V52.6H192.533V93.4L174.933 111H126.613L109.013 93.4ZM214.988 -1.00001H228.108L264.108 85.72H264.428L300.428 -1.00001H313.708V111H302.188V22.52H301.868L269.068 99.8H259.468L226.828 22.52H226.508V111H214.988V-1.00001Z" fill="white"/>
<rect x="43.5" width="12" height="12" fill="white"/>
</g>
<defs>
<clipPath id="clip0_1_61">
<rect width="314" height="109" fill="white"/>
</clipPath>
</defs>
</svg>
